<svg width="190" height="48" xmlns="http://www.w3.org/2000/svg">
 <!-- Created with Method Draw - http://github.com/duopixel/Method-Draw/ -->

 <g>
  <title>background</title>
  <rect fill="#fff" id="canvas_background" height="50" width="192" y="-1" x="-1"/>
  <g display="none" overflow="visible" y="0" x="0" height="100%" width="100%" id="canvasGrid">
   <rect fill="url(#gridpattern)" stroke-width="0" y="1" x="1" height="60" width="180"/>
  </g>
 </g>
 <g>
  <title>Layer 1</title>
  <g id="svg_22">
   <path id="svg_5" fill="#00A4C3" d="m20.000101,2.02092c-9.545092,0 -17.282946,7.737745 -17.282946,17.282837c0,11.345157 14.05346,26.675324 17.282837,26.675324s17.282837,-14.898439 17.282837,-26.675324c0.000109,-9.545092 -7.737636,-17.282837 -17.282728,-17.282837zm-0.07815,30.21915c-6.794073,0 -12.301655,-5.507691 -12.301655,-12.301764c0,-6.793964 5.507691,-12.301655 12.301655,-12.301655c6.794073,0 12.301655,5.507691 12.301655,12.301655c0,6.794073 -5.507582,12.301764 -12.301655,12.301764z"/>
   <path id="svg_6" fill="#FF4B30" d="m19.92195,10.013006c-0.305319,0 -0.606833,0.015978 -0.905195,0.042934c0.732699,0.846175 1.176928,1.948865 1.176928,3.15601c0,2.664935 -2.160273,4.825208 -4.825208,4.825208c-1.86615,0 -3.483719,-1.060083 -4.286417,-2.610262c-0.692374,1.353989 -1.085517,2.886342 -1.085517,4.51152c0,5.481605 4.443695,9.9253 9.9253,9.9253s9.9253,-4.443695 9.9253,-9.9253c0.000109,-5.481713 -4.443587,-9.925409 -9.925191,-9.925409z"/>
   <g transform="matrix(0.10869298694825691,0,0,0.10869298694825691,0,0) " id="svg_7"/>
   <g transform="matrix(0.10869298694825691,0,0,0.10869298694825691,0,0) " id="svg_8"/>
   <g transform="matrix(0.10869298694825691,0,0,0.10869298694825691,0,0) " id="svg_9"/>
   <g transform="matrix(0.10869298694825691,0,0,0.10869298694825691,0,0) " id="svg_10"/>
   <g transform="matrix(0.10869298694825691,0,0,0.10869298694825691,0,0) " id="svg_11"/>
   <g transform="matrix(0.10869298694825691,0,0,0.10869298694825691,0,0) " id="svg_12"/>
   <g transform="matrix(0.10869298694825691,0,0,0.10869298694825691,0,0) " id="svg_13"/>
   <g transform="matrix(0.10869298694825691,0,0,0.10869298694825691,0,0) " id="svg_14"/>
   <g transform="matrix(0.10869298694825691,0,0,0.10869298694825691,0,0) " id="svg_15"/>
   <g transform="matrix(0.10869298694825691,0,0,0.10869298694825691,0,0) " id="svg_16"/>
   <g transform="matrix(0.10869298694825691,0,0,0.10869298694825691,0,0) " id="svg_17"/>
   <g transform="matrix(0.10869298694825691,0,0,0.10869298694825691,0,0) " id="svg_18"/>
   <g transform="matrix(0.10869298694825691,0,0,0.10869298694825691,0,0) " id="svg_19"/>
   <g transform="matrix(0.10869298694825691,0,0,0.10869298694825691,0,0) " id="svg_20"/>
   <g transform="matrix(0.10869298694825691,0,0,0.10869298694825691,0,0) " id="svg_21"/>
  </g>
  <text font-weight="normal" stroke="#000" transform="matrix(1.4994148015975952,0,0,1.4994148015975952,-45.220449613407254,1.248537003993988) " xml:space="preserve" text-anchor="start" font-family="'Trebuchet MS', Gadget, sans-serif" font-size="24" id="svg_23" y="23.842956" x="62.691496" stroke-width="0" fill="#000000">SooMiles</text>
 </g>
</svg>